<?xml version="1.0" encoding="utf-8"?>
<svg version="1.1" xmlns="http://www.w3.org/2000/svg" xmlns:xlink="http://www.w3.org/1999/xlink" x="0px" y="0px"
	 viewBox="0 0 1739.5 1739.5" enable-background="new 0 0 1739.5 1739.5" xml:space="preserve">
<g id="_x31__1_">
	<g>
		<path fill="#FFFFFF" d="M1039.2,606.2c-31.8,3.6-55.2,34.4-65.1,78c6.5-7.5,15.2-12.3,27.1-12.3c31.5,0,61,29.8,66.2,84.3
			c4.5,48.2-19.2,88.7-56.1,88.7c-7,0-13-1.3-18.2-3.8c24.6,51.5,63.6,80.8,100.1,74c47.8-8.9,77.1-79.8,62.8-170.5
			C1144.4,672.2,1094.8,599.9,1039.2,606.2z M1233.9,648.1c6.8,39.6-2.9,77.3-30.6,82.9c-8.1,1.6-16.5-0.8-22.8-3.6
			c16.7,66.8,38.4,87.6,50.4,86.2c22.2-3.4,32.1-76.6,21.7-166.4c-8.2-70.8-34.4-153.9-63.1-150.5c-14.3,2-23.8,35.4-25.5,82.4
			c4.4-3.1,9.6-5.1,15.4-5.4C1199,573,1224.9,595.9,1233.9,648.1z M1439.7,765.3c-87.3,0-150.6-4.6-150.6-4.6
			c-13.4,56.1-42.1,94.4-72.8,94.4c-13.2,0-25.1-3.5-35.9-10.7c-2.3,9.8-5.1,19-8.1,27.3c-28.6,77.8-82.2,95.4-130.2,89.9
			c-13.1-1.5-26.4-5.9-39.4-13.2c-13.9,12.4-70.7,70.9-75.4,76c-5.1,5.4-18.6,19-20.4,20.8c-1.8,1.8-4.5,3.5-5.7,2.7
			c-1.2-0.8-0.5-3.9,1.2-7.4c1.7-3.5,8.6-15.7,20.5-32.3c11.1-15.5,48.4-64.7,57-76.2c-24.2-21.2-46.1-53.9-62.2-99.2
			c-13.3-37.5-20.8-76.3-20.8-116.2c0-90.3,46.7-194.2,137.4-176.3c16.7,3.3,43.2,14.4,70.3,39.2c0.3-36.3,12.5-89.4,12.5-89.4
			s-46.8-39.4-165.7-20.2c-129.1,20.9-262,132-344.7,233.1C505.2,827.6,445.8,947.8,427.6,970.2c-6.4,7.9-12.3,9.4-15.3,8.5
			c-4-1.2-8.9-7.1-6.7-15.5c2.5-9.4,15.3-47,20-59.9c-48.8-2.9-107.4,1.4-142.2,25.7c-43.7,30.5-61.3,78.3-55.1,127.3
			c9.4,74.3,109.1,198.3,162,214.4c35.5,10.8,140.8-2.3,219.1-18.7c107.9-22.6,230.9-83.6,230.9-83.6s114.5,15.1,275.1-62.7
			c236.4-114.5,397.2-231.1,397.2-295C1512.5,773.3,1482.1,765.3,1439.7,765.3z"/>
	</g>
</g>
</svg>